<svg width="17" height="17" viewBox="0 0 17 17" fill="none" xmlns="http://www.w3.org/2000/svg">
<g clip-path="url(#clip0_212_1131)">
<path d="M15.3937 5.22245C15.3937 5.23374 15.3937 5.24785 15.3908 5.25632C15.3761 5.36639 15.3761 5.47646 15.3849 5.58935C15.3908 5.61758 15.3967 5.6458 15.4202 5.66838C15.4584 5.71071 15.5172 5.70225 15.5408 5.65144C15.5525 5.62604 15.5525 5.60064 15.5467 5.57524C15.5172 5.46799 15.5114 5.3551 15.5084 5.24503C15.5084 5.23938 15.5084 5.23092 15.5084 5.22245C15.5408 5.21963 15.5702 5.2168 15.5966 5.2168C15.6172 5.21398 15.6349 5.21116 15.6496 5.20269C15.6937 5.18012 15.6937 5.13214 15.6466 5.10956C15.629 5.10109 15.6055 5.09827 15.5849 5.09827C15.5114 5.10109 15.4379 5.10109 15.3643 5.10109C15.3379 5.10109 15.3114 5.10391 15.2849 5.10673C15.2702 5.10956 15.2526 5.10956 15.2408 5.11802C15.2202 5.12649 15.2085 5.1406 15.2085 5.16036C15.2114 5.18012 15.2202 5.1914 15.2408 5.19987C15.2526 5.20834 15.2673 5.21116 15.282 5.21116C15.3173 5.21398 15.3555 5.21963 15.3937 5.22245ZM16.2024 5.35228C16.2024 5.3551 16.2053 5.35792 16.2053 5.35792C16.2171 5.43412 16.2289 5.50751 16.2377 5.58089C16.2407 5.60629 16.2436 5.62886 16.2612 5.64862C16.2995 5.6966 16.3583 5.69096 16.3847 5.64016C16.3965 5.61475 16.3994 5.58935 16.3936 5.56113C16.3759 5.47646 16.3671 5.39179 16.3494 5.30994C16.3377 5.25914 16.323 5.21116 16.3083 5.166C16.2995 5.13778 16.2789 5.11802 16.2436 5.1152C16.2083 5.10956 16.1818 5.12649 16.1671 5.15189C16.1495 5.17447 16.1348 5.19705 16.123 5.22245C16.1024 5.26761 16.0848 5.31277 16.0613 5.3551C16.0583 5.36639 16.0554 5.37486 16.0495 5.38332C16.0466 5.37768 16.0436 5.37486 16.0436 5.37486C16.0054 5.3043 15.9701 5.23374 15.9319 5.166C15.926 5.16036 15.9231 5.15471 15.9201 5.14907C15.9025 5.12367 15.8819 5.10956 15.8495 5.10956C15.8201 5.11238 15.7966 5.12931 15.7819 5.15471C15.776 5.166 15.776 5.17447 15.7731 5.18576C15.7613 5.27607 15.7466 5.36639 15.7349 5.4567C15.729 5.50751 15.726 5.55831 15.726 5.60911C15.7231 5.6204 15.726 5.63451 15.7319 5.6458C15.7378 5.66838 15.7554 5.68249 15.779 5.68531C15.8084 5.68813 15.8289 5.67967 15.8378 5.65709C15.8466 5.64016 15.8495 5.62604 15.8525 5.61193C15.8643 5.56113 15.8731 5.51315 15.8819 5.46517C15.8878 5.43695 15.8907 5.41437 15.8995 5.38332C15.9054 5.39461 15.9113 5.40308 15.9172 5.41155C15.9436 5.44541 15.9701 5.47928 16.0025 5.50751C16.0348 5.53008 16.0613 5.52726 16.0877 5.50186C16.0936 5.49622 16.0966 5.49339 16.1024 5.48775C16.1289 5.44824 16.1613 5.40872 16.1877 5.36921C16.1936 5.36357 16.1965 5.35792 16.2024 5.35228Z" fill="#3A3B7B"/>
<path d="M9.42701 5.27786C9.40656 5.3315 9.40266 5.37014 9.4121 5.40226C9.42253 5.44593 9.44958 5.46023 9.4863 5.44912C9.8317 5.36715 10.5891 5.59983 10.8695 5.66468C10.9356 5.6783 10.9894 5.59636 10.9443 5.5229C10.8784 5.45176 10.1214 5.14717 9.83253 5.13057C9.7193 5.12443 9.51688 5.09656 9.42701 5.27786Z" fill="#3A3B7B"/>
<path d="M12.387 4.29189C12.4238 4.31228 12.4444 4.33173 12.4545 4.35347C12.4697 4.38197 12.4617 4.4017 12.4363 4.41176C12.208 4.51871 11.9041 4.97914 11.7815 5.13794C11.7518 5.17447 11.6832 5.15324 11.6729 5.09317C11.675 5.02525 11.9443 4.52558 12.0946 4.38948C12.1537 4.33635 12.2512 4.23209 12.387 4.29189Z" fill="#3A3B7B"/>
<path d="M10.5687 4.06531C10.613 4.03332 10.6589 4.02211 10.6824 4.0429C11.0269 4.32565 11.2095 4.77341 11.3226 5.18333C11.3269 5.19288 11.3272 5.20658 11.3238 5.22088C11.3224 5.2331 11.3131 5.24601 11.2983 5.25599C11.2825 5.26702 11.2689 5.27038 11.2625 5.26088C11.1115 5.06379 10.2492 4.29694 10.5687 4.06531Z" fill="#3A3B7B"/>
<path d="M3.27402 8.9675C3.35658 8.90851 3.44634 8.85939 3.54132 8.82128C3.64069 8.79401 3.74661 8.79852 3.84307 8.83417C3.9395 8.86982 4.02126 8.93463 4.07591 9.01882C4.1248 9.10279 4.14392 9.19974 4.13043 9.29506C4.11693 9.39037 4.07154 9.47889 4.00106 9.54731C3.94643 9.60276 3.8844 9.65106 3.81664 9.69098C3.5146 9.87826 3.20986 10.0553 2.90514 10.2425C2.84279 10.2894 2.77665 10.3315 2.70734 10.3683C2.60192 10.4187 2.48144 10.4322 2.36674 10.4065C2.25204 10.3807 2.15032 10.3173 2.07919 10.2272C2.02601 10.1634 1.98113 10.0936 1.94554 10.0194C1.65685 9.437 1.35748 8.85719 1.07949 8.26456C0.951183 8.00802 0.846937 7.71298 0.745363 7.42822C0.701418 7.34548 0.692836 7.24956 0.721446 7.16084C0.750055 7.07211 0.813599 6.99761 0.89856 6.95316C0.983521 6.90871 1.0832 6.89784 1.17639 6.92283C1.26958 6.94783 1.34893 7.00674 1.39757 7.08701C1.54708 7.2777 1.67943 7.48026 1.79318 7.69247C2.08186 8.20556 2.35718 8.71865 2.63517 9.21635C2.65136 9.24386 2.66921 9.2704 2.68863 9.29588C2.89787 9.21145 3.09466 9.10105 3.27402 8.9675Z" fill="#3A3B7B"/>
<path d="M6.25879 8.78851C5.59857 9.52992 4.49195 9.34264 3.93597 8.38829C3.54036 7.711 3.47086 6.59245 4.33158 5.88695C4.51537 5.73924 4.73515 5.63863 4.97041 5.59448C5.25887 5.55479 5.55302 5.60363 5.81081 5.73403C6.06861 5.86442 6.27686 6.0697 6.40582 6.32051C6.87626 7.14147 6.80944 8.18817 6.25879 8.78851ZM5.99149 7.05937C5.92135 6.85763 5.78064 6.6854 5.59322 6.57192C5.48716 6.49937 5.35829 6.4641 5.22832 6.47204C5.09832 6.47998 4.97516 6.53066 4.87953 6.61553C4.49731 6.94136 4.4171 7.71357 4.69509 8.17279C4.73053 8.24768 4.78256 8.31422 4.84759 8.36778C4.91262 8.42134 4.98906 8.46062 5.07156 8.48284C5.15405 8.50509 5.2406 8.50975 5.32518 8.49653C5.40976 8.48328 5.49028 8.45248 5.56116 8.40624C5.76836 8.25206 5.92037 8.03975 5.99604 7.79884C6.07175 7.55791 6.06735 7.30035 5.98349 7.06195L5.99149 7.05937Z" fill="#3A3B7B"/>
<path d="M8.9531 7.38257C8.88551 7.39652 8.81568 7.39735 8.74774 7.38501C8.67982 7.37266 8.61512 7.34742 8.55751 7.31074C8.50709 7.28306 8.4637 7.24501 8.43043 7.19931C8.39719 7.15361 8.3749 7.10141 8.3652 7.04644C8.35547 6.9915 8.35858 6.93516 8.37425 6.88149C8.38994 6.82782 8.41785 6.77816 8.45594 6.73606C8.52229 6.65148 8.61649 6.59092 8.72324 6.56418C9.00194 6.48655 9.28886 6.43922 9.57859 6.42309C9.64226 6.41598 9.70675 6.42115 9.76828 6.43829C9.82984 6.45546 9.88718 6.48422 9.93699 6.52295C9.98678 6.56165 10.028 6.60954 10.0583 6.66376C10.0885 6.71798 10.1072 6.77745 10.1132 6.83869C10.1967 7.1395 10.2059 7.4549 10.1399 7.75971C9.89935 8.74484 9.07072 9.08347 8.14051 8.76792C7.8794 8.68356 7.65046 8.52636 7.48296 8.31641C7.25956 8.06357 7.10116 7.76393 7.02053 7.44158C6.95521 7.15453 6.96236 6.85667 7.04142 6.57283C7.12046 6.28899 7.26911 6.02741 7.47494 5.80993C7.67028 5.57357 7.92381 5.38754 8.2127 5.26862C8.39523 5.17205 8.60884 5.14459 8.81145 5.19165C8.8574 5.20386 8.89912 5.22765 8.93227 5.26055C8.96543 5.29345 8.98881 5.33426 8.99999 5.37876C9.01118 5.42325 9.00975 5.46981 8.99587 5.5136C8.98197 5.55739 8.95615 5.59681 8.92104 5.62779C8.85429 5.68578 8.78177 5.73734 8.70452 5.78171C8.46688 5.92696 8.26008 6.11412 8.09507 6.33329C7.98691 6.47511 7.91242 6.63797 7.87687 6.81037C7.84129 6.98278 7.84553 7.16058 7.88927 7.33127C7.94988 7.564 8.0844 7.77289 8.27416 7.92901C8.86222 8.44212 9.6267 7.94697 9.49305 7.2466C9.29794 7.29279 9.12685 7.34153 8.9531 7.38257Z" fill="#3A3B7B"/>
<path d="M12.5458 8.8295C11.6771 9.3426 10.6881 8.8295 10.4716 7.75201C10.3139 6.98237 10.6132 5.90486 11.6611 5.49438C11.884 5.40893 12.1258 5.37892 12.364 5.40716C12.6503 5.45745 12.9129 5.5927 13.1148 5.79384C13.3166 5.99497 13.4477 6.25185 13.4894 6.52827C13.6658 7.44414 13.2648 8.42159 12.5458 8.8295ZM12.8479 7.10293C12.8476 6.88981 12.769 6.68358 12.626 6.52057C12.5495 6.41975 12.439 6.3475 12.3132 6.31615C12.1875 6.28481 12.0543 6.2963 11.9364 6.34869C11.4659 6.54365 11.1345 7.25173 11.2547 7.77254C11.2639 7.85426 11.2916 7.93308 11.3358 8.00348C11.3801 8.07387 11.4398 8.13414 11.5108 8.18009C11.5818 8.22601 11.6625 8.25651 11.747 8.26943C11.8316 8.28232 11.9181 8.27735 12.0005 8.25484C12.2492 8.17146 12.4645 8.01565 12.6164 7.80913C12.7683 7.60262 12.8492 7.35572 12.8479 7.10293Z" fill="#3A3B7B"/>
<path d="M14.3677 9.04508C14.3546 9.13897 14.3032 9.22402 14.2247 9.28152C14.1463 9.33899 14.0473 9.36423 13.9494 9.35165C13.8516 9.33906 13.763 9.28968 13.7031 9.21438C13.6432 9.1391 13.6169 9.04404 13.63 8.95015C13.6431 8.85625 13.6946 8.7712 13.773 8.71371C13.8515 8.65621 13.9505 8.63099 14.0483 8.64358C14.1462 8.65616 14.2348 8.70552 14.2947 8.78082C14.3546 8.85612 14.3809 8.95118 14.3677 9.04508ZM14.1352 5.58424C14.186 5.50972 14.2606 5.45297 14.3478 5.42245C14.435 5.39194 14.5301 5.38929 14.619 5.41492C14.7094 5.43661 14.7892 5.48745 14.8452 5.5589C14.9011 5.63036 14.9298 5.7181 14.9264 5.80743C14.9146 5.95072 14.8923 6.09303 14.8596 6.2333C14.7714 6.70792 14.6858 7.18252 14.5923 7.65202C14.5495 7.8393 14.4934 8.01888 14.4319 8.20872C14.4105 8.26806 14.3748 8.32169 14.3277 8.36521C14.2984 8.39796 14.261 8.42307 14.2189 8.43823C14.1768 8.45341 14.1314 8.45814 14.0869 8.452C14.0424 8.44586 14.0002 8.42905 13.9642 8.40313C13.9283 8.37719 13.8998 8.34297 13.8813 8.30364C13.8495 8.2331 13.8322 8.15729 13.8305 8.08045C13.8305 7.76233 13.8305 7.44165 13.8519 7.12095C13.8882 6.66329 13.9597 6.20882 14.0657 5.76125C14.0782 5.70129 14.1017 5.64395 14.1352 5.59193V5.58424Z" fill="#3A3B7B"/>
<path fill-rule="evenodd" clip-rule="evenodd" d="M2.14479 11.1066C2.11323 11.1742 2.10457 11.2496 2.12 11.3222C2.13026 11.4178 2.15279 11.5119 2.18709 11.6022C2.22991 11.7129 2.27783 11.8223 2.33691 11.9571C2.35049 11.9881 2.36469 12.0205 2.37955 12.0546C2.45923 12.2373 2.55919 12.4708 2.69254 12.8087C2.73028 12.9046 2.7638 13.0014 2.79755 13.0989C2.81118 13.1382 2.82487 13.1777 2.83887 13.2173C2.88908 13.3581 2.97546 13.4845 3.08997 13.5847C3.13859 13.6398 3.20308 13.6799 3.2754 13.7C3.34913 13.7205 3.42754 13.7192 3.50049 13.6963C3.57343 13.6734 3.6375 13.6299 3.68437 13.5716C3.73032 13.5144 3.75765 13.4455 3.76296 13.3735C3.79278 13.2332 3.7826 13.0878 3.73346 12.9526C3.65548 12.7281 3.56664 12.5032 3.46419 12.2833L3.46372 12.2823C3.29519 11.9383 3.12388 11.5966 2.94447 11.2547L2.94313 11.2523C2.8906 11.1633 2.82235 11.0837 2.74142 11.0171C2.68889 10.9577 2.61642 10.9176 2.53639 10.9037C2.45466 10.8896 2.37036 10.9039 2.29855 10.9439C2.23062 10.9811 2.17677 11.0381 2.14479 11.1066Z" fill="#3A3B7B"/>
<path fill-rule="evenodd" clip-rule="evenodd" d="M4.71868 10.2594C4.45443 10.1938 4.17845 10.1842 3.90999 10.2314C3.70205 10.2511 3.49755 10.2971 3.35554 10.3883C3.28331 10.4347 3.22491 10.4943 3.19243 10.57C3.15977 10.6462 3.1556 10.7333 3.18237 10.8303C3.23124 11.0081 3.2947 11.1809 3.35793 11.3532L3.36818 11.3811L3.36843 11.3817C3.55883 11.8822 3.75106 12.3809 3.94503 12.878C3.96765 12.9563 3.99964 13.0319 4.04035 13.1032L4.04111 13.1045C4.09489 13.1931 4.16386 13.2722 4.24512 13.3388C4.28576 13.3753 4.33602 13.4006 4.39052 13.412C4.44555 13.4234 4.50278 13.4201 4.55598 13.4024C4.60919 13.3847 4.65631 13.3533 4.69222 13.3117C4.72755 13.2708 4.75069 13.2214 4.75918 13.1689C4.79424 13.0263 4.78301 12.8768 4.72697 12.7404C4.70949 12.6945 4.69577 12.6476 4.68131 12.5983C4.67649 12.5818 4.6716 12.5651 4.66645 12.548C5.11045 12.3815 5.58289 12.1575 5.74902 11.6364C5.81407 11.4563 5.8195 11.2613 5.76453 11.0782C5.70952 10.8948 5.59665 10.7323 5.44148 10.613C5.23029 10.4459 4.9836 10.3253 4.71868 10.2594ZM3.98621 10.8986C3.99495 10.8961 4.00376 10.8939 4.01259 10.8918C4.30166 10.8482 4.5974 10.9063 4.84538 11.0554C4.95466 11.1284 4.99942 11.2094 5.00711 11.2874C5.01505 11.3677 4.98463 11.4547 4.92352 11.5383C4.80805 11.6963 4.59733 11.8228 4.40699 11.8464C4.26823 11.5397 4.12732 11.2205 3.98621 10.8986Z" fill="#3A3B7B"/>
<path d="M6.48033 9.698C6.79501 9.55851 7.18482 9.53442 7.48984 9.63249C7.56666 9.65397 7.63331 9.70042 7.67839 9.76391C7.72318 9.82699 7.74385 9.90302 7.73694 9.97903C7.73649 10.0284 7.72387 10.0769 7.70013 10.1207C7.67597 10.1653 7.64098 10.2036 7.59811 10.2325C7.55525 10.2613 7.50578 10.2799 7.45389 10.2865C7.40197 10.2931 7.34918 10.2877 7.29993 10.2706L7.29618 10.2693L7.29266 10.2675C7.26747 10.2549 7.2407 10.2453 7.21302 10.2391L7.21127 10.2387C6.9967 10.184 6.79429 10.2747 6.72036 10.386C6.6851 10.4391 6.68073 10.4928 6.7101 10.5415C6.74155 10.5937 6.81868 10.6523 6.97477 10.6941C7.0177 10.7054 7.0617 10.7163 7.10634 10.7274C7.22976 10.7581 7.35803 10.7899 7.48206 10.8341L7.48253 10.8343C8.05474 11.0432 8.26782 11.476 8.19487 11.8831C8.12271 12.2856 7.77245 12.6519 7.24572 12.7383C7.05406 12.7791 6.8546 12.7712 6.66708 12.7153C6.47909 12.6593 6.30964 12.557 6.17557 12.4186L6.17207 12.415C6.12975 12.3629 6.10128 12.3017 6.08866 12.2367C6.07705 12.178 6.08317 12.1174 6.10626 12.062C6.12921 12.0069 6.16804 11.9592 6.21814 11.9245C6.27107 11.8851 6.33486 11.8615 6.40164 11.8565C6.4682 11.8516 6.5348 11.8655 6.59324 11.8964C6.65161 11.9235 6.70591 11.958 6.75464 11.9991L6.75556 11.9998C6.84177 12.0755 6.94608 12.0952 7.0461 12.077C7.14758 12.0584 7.24301 12.0008 7.30439 11.9243C7.36536 11.8484 7.38984 11.7581 7.36079 11.6705C7.33156 11.5822 7.24366 11.4833 7.05054 11.4006C7.00006 11.3801 6.94772 11.3635 6.89327 11.3473C6.87858 11.343 6.86365 11.3386 6.84854 11.3342C6.80828 11.3225 6.76686 11.3104 6.72624 11.2971C6.69826 11.288 6.67051 11.2793 6.64303 11.2707C6.56791 11.2472 6.49467 11.2243 6.42419 11.1936C6.2708 11.1435 6.13827 11.0473 6.04634 10.9191C5.95403 10.7905 5.90758 10.6366 5.9139 10.4806C5.91439 10.1003 6.16396 9.83826 6.48033 9.698Z" fill="#3A3B7B"/>
<path d="M10.4699 9.6574C10.4089 9.6288 10.3414 9.61522 10.2736 9.61788C10.2058 9.62057 10.1397 9.6394 10.0813 9.67274C10.0233 9.70584 9.97477 9.75218 9.93998 9.80765C9.90808 9.85437 9.886 9.90661 9.875 9.96147C9.86399 10.0163 9.86426 10.0726 9.87576 10.1273C9.88712 10.1976 9.89972 10.2659 9.91216 10.3333C9.93276 10.4449 9.9528 10.5539 9.96603 10.6651L9.96652 10.6679C9.99663 10.8422 10.0124 11.0186 10.0138 11.1953L10.0139 11.1978C10.0242 11.3886 9.95648 11.5757 9.82523 11.7194L9.82315 11.7219C9.78044 11.7745 9.72335 11.8146 9.65823 11.8377C9.59313 11.8609 9.5226 11.8662 9.45453 11.8531C9.38645 11.84 9.32352 11.809 9.27277 11.7635C9.22202 11.718 9.18541 11.6597 9.16714 11.5954C9.12814 11.4599 9.10556 11.3206 9.09983 11.1801L9.16645 10.1621C9.16743 10.1488 9.16855 10.1352 9.1697 10.1214C9.17223 10.0905 9.17483 10.059 9.17591 10.0296C9.17748 9.98642 9.17613 9.94197 9.16564 9.8999C9.1549 9.8569 9.13448 9.81599 9.09826 9.78116C9.06239 9.74668 9.01397 9.72124 8.95304 9.70392C8.84286 9.67331 8.7497 9.67428 8.67207 9.7059C8.59439 9.73752 8.54118 9.79623 8.50352 9.86405C8.46615 9.9313 8.44214 10.0109 8.42398 10.0907C8.41051 10.1498 8.39968 10.2119 8.38939 10.2711C8.38583 10.2914 8.38235 10.3115 8.37884 10.3309L8.37875 10.3315C8.32369 10.6557 8.3073 10.985 8.3299 11.3128C8.33411 11.4899 8.3726 11.6648 8.44344 11.8285C8.52336 12.0396 8.6681 12.2226 8.85858 12.3532C9.04945 12.484 9.27723 12.5561 9.51175 12.56C9.74628 12.5638 9.97648 12.4991 10.1719 12.3745C10.3669 12.2501 10.5181 12.0718 10.6054 11.8633C10.7275 11.5975 10.7848 11.3086 10.773 11.0184C10.7658 10.8065 10.7538 10.593 10.7419 10.3806C10.736 10.2764 10.7302 10.1724 10.7249 10.0691C10.7223 9.96549 10.6867 9.86513 10.6229 9.78149C10.5834 9.72861 10.5308 9.68596 10.4699 9.6574Z" fill="#3A3B7B"/>
<path d="M12.6298 11.2538C12.6236 11.2613 12.6171 11.2691 12.6102 11.2772C12.5606 11.0025 12.5146 10.7277 12.4685 10.4526C12.452 10.3539 12.4354 10.2548 12.4187 10.1559L12.4168 10.1449L12.4107 10.1354C12.3992 10.1174 12.3981 10.0999 12.3981 10.0624V10.058L12.3974 10.0537C12.3849 9.9763 12.3484 9.90424 12.2927 9.84698C12.2371 9.78988 12.1649 9.75014 12.0855 9.73288C12.0062 9.71411 11.9229 9.71825 11.846 9.74479C11.7693 9.77126 11.7025 9.81883 11.6539 9.88155C11.6134 9.92967 11.5803 9.98306 11.5554 10.0401C11.499 10.163 11.4422 10.2862 11.3851 10.4097L11.3842 10.4118C11.2418 10.7202 11.0985 11.0306 10.9593 11.3434L10.9589 11.3445C10.8734 11.5473 10.8029 11.7611 10.7326 11.9742C10.7186 12.0167 10.7046 12.0592 10.6904 12.1016C10.665 12.1689 10.654 12.2403 10.6578 12.3117C10.6531 12.3756 10.6691 12.4394 10.7035 12.4944C10.7385 12.5505 10.7911 12.5946 10.8536 12.6206C10.9199 12.6485 10.9941 12.6544 11.0643 12.6375C11.1344 12.6205 11.1966 12.5817 11.2412 12.5271C11.2981 12.4599 11.3471 12.3866 11.387 12.3089C11.5049 12.0774 11.6176 11.8432 11.7298 11.6099C11.7732 11.5197 11.8153 11.4389 11.8633 11.3509C11.8666 11.3617 11.8699 11.3723 11.8734 11.3829C11.9237 11.5954 12.0086 11.7989 12.1249 11.986C12.1469 12.0256 12.1776 12.0602 12.2148 12.0875C12.2524 12.1151 12.2959 12.1345 12.3422 12.1443C12.3884 12.1541 12.4363 12.1542 12.4826 12.1444C12.5288 12.1347 12.5724 12.1153 12.6101 12.0879L12.6847 12.0343L13.2635 11.5663L13.2293 11.7757C13.1823 12.0635 13.1357 12.3489 13.0861 12.6344C13.0537 12.7609 13.0538 12.893 13.0863 13.0195C13.1004 13.0907 13.1362 13.1562 13.1893 13.2078C13.2428 13.2597 13.3114 13.295 13.3861 13.3091C13.4608 13.3232 13.5382 13.3154 13.6082 13.2867C13.6772 13.2585 13.7359 13.2113 13.7769 13.1511C13.8723 13.0374 13.9317 12.8998 13.948 12.7547C13.9726 12.5497 14.0004 12.3419 14.0281 12.1341C14.0601 11.8947 14.0921 11.6553 14.1191 11.4206L14.1192 11.4198C14.1452 11.1628 14.1578 10.9048 14.1569 10.6466C14.1626 10.565 14.1415 10.4837 14.0964 10.4142C14.0511 10.3445 13.9841 10.2903 13.9049 10.2593C13.8224 10.2234 13.7302 10.2138 13.6417 10.2319C13.5537 10.25 13.4741 10.2945 13.4144 10.3589C13.3076 10.4537 13.2075 10.5551 13.1146 10.6625L13.1139 10.6632C13.0125 10.7846 12.9118 10.9083 12.8117 11.0311C12.7508 11.1059 12.6901 11.1804 12.6298 11.2538Z" fill="#3A3B7B"/>
</g>
<defs>
<clipPath id="clip0_212_1131">
<rect width="15.6917" height="9.68213" fill="white" transform="translate(0.704834 4.03235)"/>
</clipPath>
</defs>
</svg>
