<svg width="17" height="17" viewBox="0 0 17 17" fill="none" xmlns="http://www.w3.org/2000/svg">
<g clip-path="url(#clip0_212_1147)">
<path d="M14.9709 4.64791C14.9709 4.80349 15.0986 4.92961 15.2561 4.92961H15.5413C15.6988 4.92961 15.8265 4.80349 15.8265 4.64791C15.8265 4.49233 15.6988 4.36621 15.5413 4.36621H15.2561C15.0986 4.36621 14.9709 4.49233 14.9709 4.64791Z" fill="#212326"/>
<path d="M6.70078 13.3806H8.08613L7.68282 12.9822C7.57587 12.8766 7.43079 12.8172 7.27953 12.8172H6.70078C4.49579 12.8172 2.70829 11.0515 2.70829 8.87341C2.70829 6.69531 4.49579 4.92961 6.70078 4.92961H11.2636C13.4686 4.92961 15.2561 6.69531 15.2561 8.87341C15.2561 11.0515 13.4686 12.8172 11.2636 12.8172H9.55676C9.32985 12.8172 9.11225 12.7282 8.95179 12.5697L8.47931 12.103C8.21191 11.8388 7.8492 11.6904 7.47104 11.6904H6.70078C5.12578 11.6904 3.84901 10.4292 3.84901 8.87341C3.84901 7.31761 5.12578 6.05641 6.70078 6.05641H11.2636C12.8386 6.05641 14.1154 7.31761 14.1154 8.87341C14.1154 10.4292 12.8386 11.6904 11.2636 11.6904H10.1677C9.94074 11.6904 9.72314 11.6014 9.56269 11.4429L9.09018 10.9762C8.82278 10.712 8.4601 10.5636 8.08193 10.5636H6.70078C5.7558 10.5636 4.98972 9.80687 4.98972 8.87341C4.98972 7.93995 5.7558 7.18321 6.70078 7.18321H11.2636C12.2086 7.18321 12.9747 7.93995 12.9747 8.87341C12.9747 9.79549 12.2272 10.5451 11.2981 10.5633L11.2979 10.5636H10.8806C10.6537 10.5636 10.4361 10.4746 10.2756 10.3161L9.80313 9.84935C9.58372 9.6326 9.30017 9.4938 8.99653 9.45096L8.9822 9.43681H6.70078C6.38579 9.43681 6.13043 9.18456 6.13043 8.87341C6.13043 8.56225 6.38579 8.31001 6.70078 8.31001H11.2636C11.5786 8.31001 11.834 8.56225 11.834 8.87341C11.834 9.18456 11.5786 9.43681 11.2636 9.43681H10.1229L10.5262 9.8352C10.6332 9.94085 10.7783 10.0002 10.9295 10.0002H11.2636C11.8936 10.0002 12.4043 9.49572 12.4043 8.87341C12.4043 8.2511 11.8936 7.74661 11.2636 7.74661H6.70078C6.07079 7.74661 5.56007 8.2511 5.56007 8.87341C5.56007 9.49572 6.07079 10.0002 6.70078 10.0002H8.79488C9.02179 10.0002 9.23939 10.0892 9.39984 10.2477L9.87235 10.7145C10.1398 10.9786 10.5024 11.127 10.8806 11.127H11.4062V11.1227C12.5998 11.05 13.545 10.0707 13.545 8.87341C13.545 7.62879 12.5236 6.61981 11.2636 6.61981H6.70078C5.4408 6.61981 4.41936 7.62879 4.41936 8.87341C4.41936 10.118 5.4408 11.127 6.70078 11.127H8.08193C8.30884 11.127 8.52644 11.216 8.6869 11.3745L9.1594 11.8413C9.42681 12.1054 9.78948 12.2538 10.1677 12.2538H11.2636C13.1536 12.2538 14.6858 10.7404 14.6858 8.87341C14.6858 7.00646 13.1536 5.49301 11.2636 5.49301H6.70078C4.81078 5.49301 3.27865 7.00646 3.27865 8.87341C3.27865 10.7404 4.81078 12.2538 6.70078 12.2538H7.47104C7.69795 12.2538 7.91555 12.3428 8.076 12.5013L8.54851 12.9681C8.81591 13.2322 9.17859 13.3806 9.55676 13.3806H11.2636C13.7836 13.3806 15.8265 11.3627 15.8265 8.87341C15.8265 6.38415 13.7836 4.36621 11.2636 4.36621L6.70078 4.36621C4.18079 4.36621 2.13794 6.38415 2.13794 8.87341C2.13794 11.3627 4.1808 13.3806 6.70078 13.3806Z" fill="#212326"/>
</g>
<defs>
<clipPath id="clip0_212_1147">
<rect width="13.6885" height="9.0144" fill="white" transform="translate(2.13794 4.36621)"/>
</clipPath>
</defs>
</svg>
