<svg width="18" height="17" viewBox="0 0 18 17" fill="none" xmlns="http://www.w3.org/2000/svg">
<g clip-path="url(#clip0_212_1151)">
<path d="M4.68712 5.3678C4.00913 5.3678 3.35891 5.63713 2.8795 6.11654L1.3149 7.68114C0.835492 8.16055 0.566162 8.81076 0.566162 9.48876C0.566162 10.9006 1.71069 12.0451 3.12253 12.0451C3.80053 12.0451 4.45074 11.7758 4.93015 11.2964L6.01239 10.2141C6.01239 10.2141 6.01242 10.2142 6.01239 10.2141L9.16568 7.06086C9.39464 6.83189 9.70518 6.70326 10.029 6.70326C10.5711 6.70326 11.0307 7.05659 11.19 7.54551L12.1852 6.55034C11.7312 5.83929 10.9352 5.3678 10.029 5.3678C9.35099 5.3678 8.70078 5.63713 8.22137 6.11654L3.98585 10.3521C3.75688 10.581 3.44634 10.7097 3.12253 10.7097C2.44824 10.7097 1.90163 10.1631 1.90163 9.48876C1.90163 9.16495 2.03026 8.85441 2.25922 8.62545L3.82381 7.06086C4.05278 6.83189 4.36332 6.70326 4.68712 6.70326C5.22925 6.70326 5.68883 7.0566 5.84818 7.54554L6.84337 6.55037C6.38937 5.83931 5.59332 5.3678 4.68712 5.3678Z" fill="#394149"/>
<path d="M9.32779 10.3521C9.09883 10.581 8.78829 10.7097 8.46448 10.7097C7.92244 10.7097 7.46288 10.3564 7.30349 9.86758L6.30835 10.8627C6.76236 11.5737 7.55837 12.0451 8.46448 12.0451C9.14248 12.0451 9.79269 11.7758 10.2721 11.2964L14.5076 7.06086C14.7366 6.83189 15.0471 6.70326 15.3709 6.70326C16.0452 6.70326 16.5918 7.24988 16.5918 7.92417C16.5918 8.24798 16.4632 8.55852 16.2342 8.78748L14.6697 10.3521C14.4407 10.581 14.1302 10.7097 13.8063 10.7097C13.2643 10.7097 12.8047 10.3564 12.6453 9.86747L11.6502 10.8626C12.1042 11.5737 12.9002 12.0451 13.8063 12.0451C14.4843 12.0451 15.1346 11.7758 15.614 11.2964L17.1786 9.73179C17.658 9.25238 17.9273 8.60216 17.9273 7.92417C17.9273 6.51232 16.7828 5.3678 15.3709 5.3678C14.6929 5.3678 14.0427 5.63713 13.5633 6.11654L9.32779 10.3521Z" fill="#394149"/>
</g>
<defs>
<clipPath id="clip0_212_1151">
<rect width="17.3611" height="6.67733" fill="white" transform="translate(0.566162 5.3678)"/>
</clipPath>
</defs>
</svg>
