<svg width="20" height="17" viewBox="0 0 20 17" fill="none" xmlns="http://www.w3.org/2000/svg">
<g clip-path="url(#clip0_212_1155)">
<path d="M19.0253 7.26073C19.0272 7.2468 19.0272 7.23273 19.0253 7.21881C19.0271 7.20747 19.0271 7.1959 19.0253 7.18453L18.8893 6.20541C18.8696 6.08828 18.8172 5.97879 18.7377 5.8892L18.7144 5.86253L18.6717 5.82063L16.3167 3.83192L16.3828 3.8967C16.3287 3.8333 16.2609 3.78259 16.1842 3.74831C16.1075 3.71402 16.024 3.69703 15.9398 3.69859H15.2247C15.1084 3.69633 14.9948 3.73257 14.9022 3.80145C14.8049 3.73298 14.6877 3.69693 14.568 3.69859H13.8529C13.7591 3.69709 13.6666 3.71991 13.5847 3.76473C13.5029 3.80956 13.4345 3.8748 13.3866 3.95384C13.3127 4.06674 13.285 4.20276 13.3089 4.33482L13.3983 4.952C13.339 4.91909 13.272 4.90202 13.2039 4.90248H9.74146C9.61724 4.90324 9.49586 4.93894 9.39171 5.00534C9.29099 5.06714 9.21015 5.15564 9.15855 5.26059L8.89041 5.03581C8.78487 4.94008 8.64557 4.8882 8.50181 4.89105H3.06908C2.94441 4.89327 2.82251 4.92742 2.71546 4.9901C2.569 5.07414 2.46167 5.21078 2.41623 5.37107L0.690811 11.0286C0.658572 11.1218 0.655401 11.2224 0.681703 11.3174C0.708005 11.4123 0.762589 11.4975 0.838483 11.562C0.858259 11.5784 0.879023 11.5937 0.900662 11.6077C0.900662 11.6077 0.865681 11.5848 0.846251 11.5658L3.20122 13.5583C3.30084 13.6482 3.43109 13.6985 3.56648 13.6992H9.04198C9.16702 13.6961 9.289 13.6606 9.39561 13.5964C9.4559 13.5641 9.50984 13.5215 9.55493 13.4706L9.57437 13.444L9.60545 13.4059L9.62876 13.364L9.88525 13.5811C9.98344 13.6675 10.1109 13.715 10.2428 13.7145H15.7299C15.8548 13.7104 15.9766 13.675 16.0835 13.6116C16.1425 13.5773 16.1961 13.535 16.2429 13.4859L16.2623 13.4592L16.2934 13.4211C16.3099 13.397 16.3242 13.3715 16.3361 13.3449C16.3488 13.3218 16.3592 13.2976 16.3672 13.2726L17.9411 8.1065V8.06078C17.943 8.04305 17.943 8.02517 17.9411 8.00744V7.97316C17.9429 7.96179 17.9429 7.95023 17.9411 7.93886C17.9428 7.91477 17.9428 7.89058 17.9411 7.86647H18.4463C18.4902 7.87042 18.5344 7.87042 18.5784 7.86647H18.6134C18.6418 7.85815 18.6692 7.84664 18.695 7.83219H18.7338L18.8038 7.77885L18.8349 7.75599L18.8893 7.68741V7.66457L18.9281 7.59979C18.926 7.5872 18.926 7.5743 18.9281 7.56171C18.9261 7.55552 18.9261 7.54884 18.9281 7.54265C18.9364 7.52031 18.9429 7.49738 18.9476 7.47407C18.9457 7.46655 18.9457 7.45872 18.9476 7.4512C18.9457 7.43986 18.9457 7.42827 18.9476 7.41692C18.9476 7.41692 19.0253 7.26834 19.0253 7.26073Z" fill="black"/>
<path d="M8.6611 5.32536C8.68173 5.34365 8.69614 5.36769 8.70239 5.39426C8.70866 5.42083 8.70644 5.44864 8.69609 5.47394L6.97456 11.1276C6.95288 11.1894 6.90853 11.241 6.85021 11.2724C6.80274 11.3035 6.74781 11.3219 6.69086 11.3258H1.21929C1.17256 11.3236 1.12829 11.3046 1.09493 11.2724C1.07509 11.2544 1.06116 11.231 1.05493 11.2053C1.0487 11.1795 1.05045 11.1525 1.05996 11.1276L2.78537 5.47394C2.80525 5.41143 2.84821 5.35845 2.90584 5.32536C2.95409 5.29647 3.00876 5.27947 3.06517 5.27583H8.53674C8.58311 5.27627 8.62756 5.29397 8.6611 5.32536ZM5.80484 9.98852L6.83465 6.61306H3.9512L2.92527 9.98852H5.80484ZM13.884 5.3825C13.9026 5.40377 13.926 5.42064 13.9522 5.43185C13.9785 5.44306 14.0069 5.44833 14.0355 5.44727H14.7467C14.7738 5.44753 14.8004 5.44102 14.8243 5.42835C14.8481 5.41569 14.8682 5.39728 14.8827 5.37488C14.8953 5.35738 14.9042 5.33757 14.9089 5.31663C14.9136 5.29569 14.9139 5.27404 14.9099 5.25297L14.77 4.24719C14.7567 4.20064 14.7328 4.15766 14.7001 4.12147C14.6814 4.1002 14.6581 4.08333 14.6318 4.07212C14.6056 4.0609 14.5771 4.05564 14.5485 4.0567H13.8374C13.8103 4.05644 13.7836 4.06295 13.7598 4.07562C13.736 4.08828 13.7159 4.10668 13.7013 4.12909C13.6741 4.18242 13.6625 4.21671 13.6741 4.24719L13.8179 5.25297C13.8253 5.30194 13.8484 5.34732 13.884 5.3825ZM16.1418 4.23957C16.1285 4.19302 16.1045 4.15003 16.0718 4.11385C16.054 4.09266 16.0313 4.07579 16.0057 4.06456C15.9801 4.05333 15.9522 4.04803 15.9242 4.04908H15.2091C15.1825 4.04834 15.1561 4.05467 15.1329 4.06741C15.1096 4.08016 15.0903 4.09884 15.077 4.12147C15.0511 4.15527 15.04 4.19772 15.0459 4.23957L15.1897 5.24535C15.1987 5.29381 15.2216 5.33874 15.2558 5.37488C15.2748 5.39573 15.2982 5.41232 15.3243 5.4235C15.3505 5.43467 15.3788 5.44018 15.4073 5.43964H16.1224C16.1489 5.43999 16.1751 5.43349 16.1983 5.42078C16.2215 5.40808 16.2409 5.38962 16.2545 5.36726C16.268 5.35022 16.2774 5.33042 16.2822 5.30932C16.2869 5.28823 16.2867 5.26637 16.2817 5.24535L16.1418 4.23957ZM13.2583 5.76348L13.1884 5.26821H9.74143C9.68731 5.27113 9.63495 5.28824 9.58986 5.31773C9.56125 5.33304 9.53633 5.35425 9.51687 5.3799C9.49744 5.40555 9.4839 5.43503 9.47719 5.46632L9.18961 6.41113C9.17813 6.43475 9.1742 6.46124 9.17836 6.48708C9.18254 6.51292 9.19458 6.53691 9.21292 6.55591C9.24569 6.58611 9.28846 6.60372 9.3334 6.60544H13.5226L12.4928 9.98091H8.31524C8.26138 9.98211 8.20892 9.99794 8.1637 10.0266C8.10874 10.0608 8.06859 10.1137 8.051 10.1752L7.75954 11.12C7.75003 11.1443 7.74753 11.1706 7.75232 11.1962C7.75714 11.2217 7.76903 11.2455 7.78673 11.2648C7.81848 11.297 7.86158 11.3161 7.90721 11.3181H13.3943C13.4511 11.3133 13.5058 11.295 13.5536 11.2648C13.611 11.2332 13.6541 11.1815 13.6741 11.12L15.2519 5.95397H13.4759C13.4478 5.95451 13.4198 5.94938 13.3937 5.9389C13.3677 5.92841 13.3441 5.91279 13.3244 5.89301C13.2923 5.85846 13.2695 5.81653 13.2583 5.7711V5.76348Z" fill="white"/>
</g>
<defs>
<clipPath id="clip0_212_1155">
<rect width="18.3627" height="10.016" fill="white" transform="translate(0.664062 3.69849)"/>
</clipPath>
</defs>
</svg>
