<svg width="20" height="17" viewBox="0 0 20 17" fill="none" xmlns="http://www.w3.org/2000/svg">
<g clip-path="url(#clip0_212_1127)">
<path d="M19.2992 7.26073C19.3011 7.2468 19.3011 7.23273 19.2992 7.21881C19.301 7.20747 19.301 7.1959 19.2992 7.18453L19.1632 6.20541C19.1436 6.08828 19.0911 5.97879 19.0116 5.8892L18.9883 5.86253L18.9456 5.82063L16.5906 3.83192L16.6567 3.8967C16.6026 3.8333 16.5348 3.78259 16.4581 3.74831C16.3815 3.71402 16.2979 3.69703 16.2137 3.69859H15.4986C15.3824 3.69633 15.2687 3.73257 15.1761 3.80145C15.0788 3.73298 14.9617 3.69693 14.8419 3.69859H14.1268C14.0331 3.69709 13.9406 3.71991 13.8587 3.76473C13.7768 3.80956 13.7084 3.8748 13.6605 3.95384C13.5867 4.06674 13.5589 4.20276 13.5828 4.33482L13.6722 4.952C13.613 4.91909 13.5459 4.90202 13.4779 4.90248H10.0154C9.89116 4.90324 9.76979 4.93894 9.66563 5.00534C9.56492 5.06714 9.48407 5.15564 9.43248 5.26059L9.16433 5.03581C9.0588 4.94008 8.9195 4.8882 8.77573 4.89105H3.34301C3.21834 4.89327 3.09644 4.92742 2.98939 4.9901C2.84293 5.07414 2.7356 5.21078 2.69015 5.37107L0.964737 11.0286C0.932498 11.1218 0.929326 11.2224 0.955629 11.3174C0.981931 11.4123 1.03652 11.4975 1.11241 11.562C1.13218 11.5784 1.15295 11.5937 1.17459 11.6077C1.17459 11.6077 1.13961 11.5848 1.12018 11.5658L3.47514 13.5583C3.57476 13.6482 3.70501 13.6985 3.84041 13.6992H9.3159C9.44095 13.6961 9.56293 13.6606 9.66954 13.5964C9.72983 13.5641 9.78377 13.5215 9.82886 13.4706L9.84829 13.444L9.87938 13.4059L9.90269 13.364L10.1592 13.5811C10.2574 13.6675 10.3848 13.715 10.5167 13.7145H16.0038C16.1287 13.7104 16.2505 13.675 16.3574 13.6116C16.4164 13.5773 16.47 13.535 16.5168 13.4859L16.5362 13.4592L16.5673 13.4211C16.5838 13.397 16.5981 13.3715 16.61 13.3449C16.6227 13.3218 16.6331 13.2976 16.6411 13.2726L18.215 8.1065V8.06078C18.2169 8.04305 18.2169 8.02517 18.215 8.00744V7.97316C18.2169 7.96179 18.2169 7.95023 18.215 7.93886C18.2167 7.91477 18.2167 7.89058 18.215 7.86647H18.7202C18.7641 7.87042 18.8083 7.87042 18.8523 7.86647H18.8873C18.9157 7.85815 18.9431 7.84664 18.9689 7.83219H19.0078L19.0777 7.77885L19.1088 7.75599L19.1632 7.68741V7.66457L19.2021 7.59979C19.1999 7.5872 19.1999 7.5743 19.2021 7.56171C19.2 7.55552 19.2 7.54884 19.2021 7.54265C19.2103 7.52031 19.2168 7.49738 19.2215 7.47407C19.2197 7.46655 19.2197 7.45872 19.2215 7.4512C19.2196 7.43986 19.2196 7.42827 19.2215 7.41692C19.2215 7.41692 19.2992 7.26834 19.2992 7.26073Z" fill="black"/>
<path d="M8.93502 5.32536C8.95565 5.34365 8.97006 5.36769 8.97631 5.39426C8.98259 5.42083 8.98037 5.44864 8.97001 5.47394L7.24849 11.1276C7.22681 11.1894 7.18246 11.241 7.12413 11.2724C7.07667 11.3035 7.02173 11.3219 6.96478 11.3258H1.49321C1.44649 11.3236 1.40222 11.3046 1.36886 11.2724C1.34901 11.2544 1.33509 11.231 1.32886 11.2053C1.32262 11.1795 1.32438 11.1525 1.33388 11.1276L3.0593 5.47394C3.07918 5.41143 3.12214 5.35845 3.17977 5.32536C3.22801 5.29647 3.28268 5.27947 3.33909 5.27583H8.81067C8.85703 5.27627 8.90148 5.29397 8.93502 5.32536ZM6.07876 9.98852L7.10857 6.61306H4.22513L3.19919 9.98852H6.07876ZM14.1579 5.3825C14.1766 5.40377 14.1999 5.42064 14.2261 5.43185C14.2524 5.44306 14.2809 5.44833 14.3095 5.44727H15.0206C15.0477 5.44753 15.0744 5.44102 15.0982 5.42835C15.122 5.41569 15.1421 5.39728 15.1566 5.37488C15.1692 5.35738 15.1782 5.33757 15.1828 5.31663C15.1875 5.29569 15.1878 5.27404 15.1838 5.25297L15.0439 4.24719C15.0306 4.20064 15.0067 4.15766 14.974 4.12147C14.9553 4.1002 14.932 4.08333 14.9057 4.07212C14.8795 4.0609 14.851 4.05564 14.8224 4.0567H14.1113C14.0842 4.05644 14.0575 4.06295 14.0337 4.07562C14.0099 4.08828 13.9898 4.10668 13.9753 4.12909C13.9481 4.18242 13.9364 4.21671 13.9481 4.24719L14.0918 5.25297C14.0992 5.30194 14.1224 5.34732 14.1579 5.3825ZM16.4157 4.23957C16.4024 4.19302 16.3785 4.15003 16.3458 4.11385C16.3279 4.09266 16.3052 4.07579 16.2796 4.06456C16.254 4.05333 16.2261 4.04803 16.1981 4.04908H15.483C15.4564 4.04834 15.4301 4.05467 15.4068 4.06741C15.3836 4.08016 15.3642 4.09884 15.3509 4.12147C15.3251 4.15527 15.3139 4.19772 15.3198 4.23957L15.4636 5.24535C15.4726 5.29381 15.4955 5.33874 15.5297 5.37488C15.5487 5.39573 15.5721 5.41232 15.5982 5.4235C15.6244 5.43467 15.6527 5.44018 15.6812 5.43964H16.3963C16.4229 5.43999 16.449 5.43349 16.4722 5.42078C16.4954 5.40808 16.5148 5.38962 16.5284 5.36726C16.5419 5.35022 16.5514 5.33042 16.5561 5.30932C16.5608 5.28823 16.5606 5.26637 16.5556 5.24535L16.4157 4.23957ZM13.5322 5.76348L13.4623 5.26821H10.0154C9.96124 5.27113 9.90888 5.28824 9.86379 5.31773C9.83517 5.33304 9.81026 5.35425 9.7908 5.3799C9.77136 5.40555 9.75782 5.43503 9.75111 5.46632L9.46353 6.41113C9.45206 6.43475 9.44813 6.46124 9.45229 6.48708C9.45647 6.51292 9.46851 6.53691 9.48685 6.55591C9.51962 6.58611 9.56239 6.60372 9.60732 6.60544H13.7965L12.7667 9.98091H8.58917C8.5353 9.98211 8.48284 9.99794 8.43762 10.0266C8.38266 10.0608 8.34252 10.1137 8.32492 10.1752L8.03347 11.12C8.02395 11.1443 8.02145 11.1706 8.02625 11.1962C8.03107 11.2217 8.04295 11.2455 8.06065 11.2648C8.09241 11.297 8.13551 11.3161 8.18113 11.3181H13.6683C13.725 11.3133 13.7797 11.295 13.8276 11.2648C13.885 11.2332 13.928 11.1815 13.9481 11.12L15.5258 5.95397H13.7499C13.7217 5.95451 13.6937 5.94938 13.6676 5.9389C13.6416 5.92841 13.618 5.91279 13.5983 5.89301C13.5662 5.85846 13.5435 5.81653 13.5322 5.7711V5.76348Z" fill="white"/>
</g>
<defs>
<clipPath id="clip0_212_1127">
<rect width="18.3627" height="10.016" fill="white" transform="translate(0.937988 3.69849)"/>
</clipPath>
</defs>
</svg>
