<svg width="89" height="52" viewBox="0 0 89 52" fill="none" xmlns="http://www.w3.org/2000/svg">
<path d="M1.58929 0H0V24H1.58929V0Z" fill="white"/>
<path d="M3.17746 0H2.38281V24H3.17746V0Z" fill="white"/>
<path d="M5.56222 0H4.76758V24H5.56222V0Z" fill="white"/>
<path d="M10.3295 0H8.74023V24H10.3295V0Z" fill="white"/>
<path d="M13.5095 0H12.7148V24H13.5095V0Z" fill="white"/>
<path d="M16.6892 0H15.8945V24H16.6892V0Z" fill="white"/>
<path d="M18.2751 0H17.4805V24H18.2751V0Z" fill="white"/>
<path d="M21.4542 0H19.0703V24H21.4542V0Z" fill="white"/>
<path d="M25.4272 0H23.8379V24H25.4272V0Z" fill="white"/>
<path d="M27.8119 0H26.2227V24H27.8119V0Z" fill="white"/>
<path d="M30.9914 0H28.6074V24H30.9914V0Z" fill="white"/>
<path d="M34.1696 0H33.375V24H34.1696V0Z" fill="white"/>
<path d="M35.7595 0H34.9648V24H35.7595V0Z" fill="white"/>
<path d="M39.7341 0H38.9395V24H39.7341V0Z" fill="white"/>
<path d="M42.1147 0H40.5254V24H42.1147V0Z" fill="white"/>
<path d="M44.4997 0H43.7051V24H44.4997V0Z" fill="white"/>
<path d="M46.8845 0H46.0898V24H46.8845V0Z" fill="white"/>
<path d="M49.269 0H47.6797V24H49.269V0Z" fill="white"/>
<path d="M53.2419 0H52.4473V24H53.2419V0Z" fill="white"/>
<path d="M57.2157 0H54.0371V24H57.2157V0Z" fill="white"/>
<path d="M59.5974 0H58.8027V24H59.5974V0Z" fill="white"/>
<path d="M61.9819 0H61.1873V24H61.9819V0Z" fill="white"/>
<path d="M65.1596 0H63.5703V24H65.1596V0Z" fill="white"/>
<path d="M69.1325 0H68.3379V24H69.1325V0Z" fill="white"/>
<path d="M71.517 0H69.9277V24H71.517V0Z" fill="white"/>
<path d="M73.9018 0H72.3125V24H73.9018V0Z" fill="white"/>
<path d="M77.8743 0H76.285V24H77.8743V0Z" fill="white"/>
<path d="M80.2573 0H78.668V24H80.2573V0Z" fill="white"/>
<path d="M85.0265 0H82.6426V24H85.0265V0Z" fill="white"/>
<path d="M86.6169 0H85.8223V24H86.6169V0Z" fill="white"/>
<path d="M89.0014 0H87.4121V24H89.0014V0Z" fill="white"/>
<path d="M4.41797 42H2.14453V24.9375H4.41797V42ZM21.6445 42H19.3594L10.793 28.8047V42H8.51953V24.9375H10.793L19.3945 38.168V24.9375H21.6445V42ZM31.9688 42H29.7188V24.9375H31.9688V42ZM37.4414 26.7773H24.2578V24.9375H37.4414V26.7773ZM43.6641 40.4766C44.1797 40.4766 44.6562 40.3711 45.0938 40.1602C45.5312 39.9414 45.8906 39.6445 46.1719 39.2695C46.4531 38.8945 46.6133 38.4688 46.6523 37.9922H48.7266C48.6875 38.7422 48.4336 39.4414 47.9648 40.0898C47.4961 40.7305 46.8867 41.25 46.1367 41.6484C45.3867 42.0391 44.5625 42.2344 43.6641 42.2344C42.3906 42.2344 41.3359 41.9453 40.5 41.3672C39.6641 40.7812 39.0391 40.0078 38.625 39.0469C38.2188 38.0859 38.0156 37.0391 38.0156 35.9062V35.4141C38.0156 34.2734 38.2227 33.2266 38.6367 32.2734C39.0508 31.3125 39.6758 30.543 40.5117 29.9648C41.3477 29.3789 42.3984 29.0859 43.6641 29.0859C44.6562 29.0859 45.5234 29.2891 46.2656 29.6953C47.0156 30.0938 47.6016 30.6406 48.0234 31.3359C48.4531 32.0234 48.6875 32.8047 48.7266 33.6797H46.6523C46.6133 33.1562 46.4648 32.6797 46.207 32.25C45.957 31.8203 45.6133 31.4805 45.1758 31.2305C44.7461 30.9727 44.2422 30.8438 43.6641 30.8438C42.7812 30.8438 42.0859 31.0703 41.5781 31.5234C41.0781 31.9766 40.7227 32.5547 40.5117 33.2578C40.3086 33.9531 40.207 34.6719 40.207 35.4141V35.9062C40.207 36.6484 40.3086 37.3711 40.5117 38.0742C40.7148 38.7773 41.0664 39.3555 41.5664 39.8086C42.0742 40.2539 42.7734 40.4766 43.6641 40.4766ZM58.6406 33.3047C58.6406 32.5469 58.4141 31.9453 57.9609 31.5C57.5156 31.0469 56.8555 30.8203 55.9805 30.8203C55.4414 30.8203 54.9648 30.9141 54.5508 31.1016C54.1445 31.2891 53.8281 31.5352 53.6016 31.8398C53.375 32.1445 53.2617 32.4766 53.2617 32.8359H51.0703C51.0703 32.2266 51.2773 31.6367 51.6914 31.0664C52.1055 30.4883 52.6875 30.0156 53.4375 29.6484C54.1953 29.2734 55.0859 29.0859 56.1094 29.0859C57.0312 29.0859 57.8477 29.2422 58.5586 29.5547C59.2695 29.8672 59.8242 30.3398 60.2227 30.9727C60.6289 31.5977 60.832 32.3828 60.832 33.3281V39.2344C60.832 39.6562 60.8672 40.1055 60.9375 40.582C61.0156 41.0586 61.1289 41.4688 61.2773 41.8125V42H58.9922C58.8828 41.75 58.7969 41.418 58.7344 41.0039C58.6719 40.582 58.6406 40.1914 58.6406 39.832V33.3047ZM59.0391 35.8359H56.8594C55.625 35.8359 54.6719 36.0312 54 36.4219C53.3281 36.8125 52.9922 37.3984 52.9922 38.1797C52.9922 38.7891 53.1953 39.3047 53.6016 39.7266C54.0156 40.1484 54.6172 40.3594 55.4062 40.3594C56.0703 40.3594 56.6562 40.2188 57.1641 39.9375C57.6719 39.6562 58.0742 39.3086 58.3711 38.8945C58.668 38.4805 58.8281 38.082 58.8516 37.6992L59.7891 38.7422C59.7344 39.0703 59.5859 39.4336 59.3438 39.832C59.1016 40.2305 58.7773 40.6133 58.3711 40.9805C57.9727 41.3398 57.4961 41.6406 56.9414 41.8828C56.3945 42.1172 55.7773 42.2344 55.0898 42.2344C54.2305 42.2344 53.4766 42.0703 52.8281 41.7422C52.1875 41.4062 51.6875 40.9531 51.3281 40.3828C50.9766 39.8125 50.8008 39.1797 50.8008 38.4844C50.8008 37.1172 51.3164 36.082 52.3477 35.3789C53.3789 34.668 54.7656 34.3125 56.5078 34.3125H59.0156L59.0391 35.8359ZM71.625 38.6367C71.625 38.3242 71.5547 38.0352 71.4141 37.7695C71.2812 37.4961 71.0078 37.25 70.5938 37.0312C70.1797 36.8047 69.5547 36.6055 68.7188 36.4336C67.7812 36.2383 66.9688 35.9922 66.2812 35.6953C65.6016 35.3906 65.0742 35.0039 64.6992 34.5352C64.332 34.0664 64.1484 33.4844 64.1484 32.7891C64.1484 32.1172 64.3398 31.5039 64.7227 30.9492C65.1133 30.3867 65.6602 29.9375 66.3633 29.6016C67.0742 29.2578 67.9023 29.0859 68.8477 29.0859C69.8633 29.0859 70.7305 29.2656 71.4492 29.625C72.1758 29.9766 72.7305 30.4531 73.1133 31.0547C73.4961 31.6484 73.6875 32.3086 73.6875 33.0352H71.4961C71.4961 32.5117 71.2656 32.0156 70.8047 31.5469C70.3516 31.0781 69.6992 30.8438 68.8477 30.8438C68.2539 30.8438 67.7695 30.9375 67.3945 31.125C67.0273 31.3047 66.7578 31.5391 66.5859 31.8281C66.4219 32.1094 66.3398 32.4062 66.3398 32.7188C66.3398 33.0312 66.418 33.3047 66.5742 33.5391C66.7305 33.7656 67.0156 33.9688 67.4297 34.1484C67.8516 34.3281 68.4609 34.5078 69.2578 34.6875C70.2969 34.9219 71.1523 35.2031 71.8242 35.5312C72.4961 35.8594 72.9961 36.2617 73.3242 36.7383C73.6523 37.2148 73.8164 37.7969 73.8164 38.4844C73.8164 39.2188 73.6133 39.8711 73.207 40.4414C72.8008 41.0039 72.2305 41.4453 71.4961 41.7656C70.7617 42.0781 69.8984 42.2344 68.9062 42.2344C67.7891 42.2344 66.8438 42.0352 66.0703 41.6367C65.2969 41.2383 64.7109 40.7266 64.3125 40.1016C63.9141 39.4688 63.7148 38.8008 63.7148 38.0977H65.9062C65.9453 38.6914 66.1172 39.1641 66.4219 39.5156C66.7344 39.8594 67.1133 40.1055 67.5586 40.2539C68.0117 40.4023 68.4609 40.4766 68.9062 40.4766C69.5 40.4766 69.9961 40.3984 70.3945 40.2422C70.8008 40.0781 71.1055 39.8594 71.3086 39.5859C71.5195 39.3047 71.625 38.9883 71.625 38.6367ZM78.832 42H76.6406V24H78.832V42ZM77.4023 35.1328C77.418 33.9766 77.6406 32.9453 78.0703 32.0391C78.5 31.125 79.0977 30.4062 79.8633 29.8828C80.6367 29.3516 81.5352 29.0859 82.5586 29.0859C83.3945 29.0859 84.1133 29.2422 84.7148 29.5547C85.3242 29.8594 85.793 30.3477 86.1211 31.0195C86.457 31.6914 86.625 32.582 86.625 33.6914V42H84.4336V33.668C84.4336 33.0039 84.3359 32.4688 84.1406 32.0625C83.9531 31.6562 83.6719 31.3633 83.2969 31.1836C82.9219 30.9961 82.4609 30.9023 81.9141 30.9023C81.375 30.9023 80.8867 31.0156 80.4492 31.2422C80.0117 31.4688 79.6328 31.7812 79.3125 32.1797C78.9922 32.5781 78.7461 33.0352 78.5742 33.5508C78.4023 34.0586 78.3164 34.5977 78.3164 35.168L77.4023 35.1328Z" fill="white"/>
</svg>
